<svg width="20" height="20" viewBox="0 0 20 20" fill="none" xmlns="http://www.w3.org/2000/svg">
<path d="M20 0H0V20H20V0Z" fill="white" fill-opacity="0.01"/>
<path fill-rule="evenodd" clip-rule="evenodd" d="M4.16667 2.29167C4.05161 2.29167 3.95833 2.38494 3.95833 2.5V17.5C3.95833 17.6151 4.0516 17.7083 4.16667 17.7083H15.8333C15.9484 17.7083 16.0417 17.6151 16.0417 17.5V6.09222L12.2411 2.29167H4.16667ZM2.70833 2.5C2.70833 1.69458 3.36125 1.04167 4.16667 1.04167H12.5C12.6658 1.04167 12.8247 1.10751 12.9419 1.22472L17.1086 5.39139C17.2258 5.5086 17.2917 5.66757 17.2917 5.83333V17.5C17.2917 18.3054 16.6388 18.9583 15.8333 18.9583H4.16667C3.36126 18.9583 2.70833 18.3054 2.70833 17.5V2.5Z" fill="#3458AB"/>
<path fill-rule="evenodd" clip-rule="evenodd" d="M6.53917 7.72221C6.87669 7.64988 7.20893 7.86486 7.28125 8.20238L8.15793 12.2935L9.44444 9.72049C9.55031 9.50875 9.76673 9.375 10.0035 9.375C10.2402 9.375 10.4566 9.50875 10.5625 9.72049L11.849 12.2935L12.7257 8.20238C12.798 7.86486 13.1302 7.64988 13.4677 7.72221C13.8053 7.79453 14.0202 8.12677 13.9479 8.46429L12.6979 14.2976C12.6423 14.5572 12.4288 14.7533 12.1655 14.7867C11.9022 14.8201 11.6465 14.6836 11.5278 14.4462L10.0035 11.3975L8.47914 14.4462C8.36044 14.6836 8.10473 14.8201 7.84141 14.7867C7.57809 14.7533 7.36461 14.5572 7.309 14.2976L6.059 8.46429C5.98667 8.12677 6.20165 7.79453 6.53917 7.72221Z" fill="#3458AB"/>
</svg>
