<?xml version="1.0" encoding="UTF-8"?>
<svg width="18px" height="18px" viewBox="0 0 18 18" version="1.1" xmlns="http://www.w3.org/2000/svg" xmlns:xlink="http://www.w3.org/1999/xlink">
    <title>ic_mima</title>
    <g id="7.12日更新" stroke="none" stroke-width="1" fill="none" fill-rule="evenodd">
        <g id="登录页" transform="translate(-952.000000, -526.000000)">
            <g id="ic_mima" transform="translate(952.000000, 526.000000)">
                <path d="M0,0 L18,0 L18,18 L0,18 L0,0 Z" id="lock-on-(Background)"></path>
                <path d="M6.75,12.3749818 L11.25,12.3749818 L11.25,11.2499818 L6.75,11.2499818 L6.75,12.3749818 Z M5.0625,6.74997962 L3.375,6.74997962 C3.06433985,6.74997962 2.8125,7.00181973 2.8125,7.31247962 L2.8125,15.1874818 C2.8125,15.4981416 3.06434005,15.7499818 3.3750002,15.7499818 L14.625,15.7499818 C14.9356599,15.7499818 15.1875,15.4981416 15.1875,15.1874818 L15.1875,7.31247962 C15.1875,7.00181973 14.9356599,6.74997962 14.625,6.74997962 L12.9375,6.74997962 L12.9375,5.61469737 C12.9375,3.44007629 11.1746213,1.67720032 9,1.67720032 C6.82537892,1.67720032 5.0625,3.44007629 5.0625,5.61469737 L5.0625,6.74997962 Z M11.8125,5.61469737 C11.8125,4.0613966 10.553301,2.80219743 9,2.80219743 C7.4466995,2.80219743 6.1875,4.0613966 6.1875,5.61469737 L6.1875,6.74997962 L11.8125,6.74997962 L11.8125,5.61469737 Z M14.0625,7.87497962 L14.0625,14.6249818 L3.9375,14.6249818 L3.9375,7.87497962 L14.0625,7.87497962 Z" id="lock-on" fill="#788089"></path>
            </g>
        </g>
    </g>
</svg>