<?xml version="1.0" encoding="UTF-8"?>
<svg width="18px" height="18px" viewBox="0 0 18 18" version="1.1" xmlns="http://www.w3.org/2000/svg" xmlns:xlink="http://www.w3.org/1999/xlink">
    <title>ic_yonghu</title>
    <g id="7.12日更新" stroke="none" stroke-width="1" fill="none" fill-rule="evenodd">
        <g id="登录页" transform="translate(-952.000000, -446.000000)">
            <g id="ic_yonghu" transform="translate(951.999994, 446.000000)">
                <path d="M3.14721956e-06,3.14721956e-06 L18.0000031,3.14721956e-06 L18.0000031,18.0000031 L3.14721956e-06,18.0000031 L3.14721956e-06,3.14721956e-06 Z" id="Rectangle-4117" fill-opacity="0" fill="#C4C4C4" transform="translate(9.000003, 9.000003) rotate(0.000020) translate(-9.000003, -9.000003) "></path>
                <path d="M9.00000929,9.56250319 C6.82538723,9.56250319 5.06250771,7.79962394 5.06250771,5.62500161 C5.06250771,3.45037954 6.82538723,1.68750056 9.00000929,1.68750056 C11.1746314,1.68750056 12.9375106,3.45037954 12.9375106,5.62500161 C12.9375106,7.79962394 11.1746314,9.56250319 9.00000929,9.56250319 Z M9.00000929,8.43750281 C7.4467072,8.43750281 6.18750686,7.17830289 6.18750686,5.62500161 C6.18750686,4.07170005 7.4467072,2.8125004 9.00000929,2.8125004 C10.5533103,2.8125004 11.8125102,4.07170005 11.8125102,5.62500161 C11.8125102,7.17830343 10.5533103,8.43750281 9.00000929,8.43750281 Z M16.3125117,13.1902114 L16.3125117,15.7500052 C16.3125117,16.0606652 16.0606715,16.3125054 15.7500115,16.3125054 L2.25000852,16.3125054 C1.93934823,16.3125054 1.68750686,16.0606652 1.68750686,15.7500052 L1.68750686,13.1902114 C1.68750686,12.7739925 1.91589985,12.3887585 2.29147931,12.2093755 C4.33058621,11.235464 6.59983108,10.6875006 9.00000983,10.6875006 C11.4001881,10.6875006 13.6694331,11.235464 15.7085403,12.2093755 C16.0841194,12.3887585 16.3125117,12.7739925 16.3125117,13.1902114 Z M15.1875069,13.2073142 L15.1875069,15.1875006 L2.8125083,15.1875006 L2.8125083,13.2073142 C4.696146,12.3139474 6.78758791,11.8125039 9.00000983,11.8125039 C11.2124312,11.8125039 13.3038737,12.3139474 15.1875069,13.2073142 Z" id="Union" fill="#788089"></path>
            </g>
        </g>
    </g>
</svg>